; NON-PLATED HOLES START AT T1
; THROUGH (PLATED) HOLES START AT T100
M48
INCH
T1C0.086614
T100C0.030000
T101C0.041333
T102C0.038000
T103C0.060020
T104C0.035000
T105C0.040000
T106C0.088356
T107C0.031497
T108C0.032000
T109C0.041361
T110C0.100000
T111C0.043307
%
T1
X033359Y024414
X001122Y000844
X033442Y000844
X001131Y024414
T100
X012989Y018501
X009003Y007670
X011003Y007670
X012406Y010398
X007957Y011769
X010989Y018501
X012406Y008398
X007957Y009769
T101
X029240Y021348
X014276Y006766
X029240Y020348
X004969Y013008
X004969Y007255
X032474Y006766
X004970Y014008
X020067Y006766
X004970Y020994
X031474Y006766
X029271Y014245
X004969Y019994
X021067Y006766
X015276Y006766
X025803Y006766
X026803Y006766
X029271Y015245
X004970Y008255
T102
X018762Y018683
X014894Y013137
X014894Y011137
X020762Y018683
X021762Y018683
X021247Y010218
X028008Y015594
X015973Y012139
X028008Y017694
X028008Y018694
X028008Y016594
X028008Y019694
X009192Y006396
X028008Y014594
X009946Y011294
X028008Y021761
X014894Y015137
X020782Y024283
X008955Y013484
X021782Y024283
X013877Y024283
X032576Y009856
X009945Y012388
X023181Y016715
X022181Y016715
X018782Y024283
X008945Y012388
X014894Y014137
X009955Y013484
X023762Y018683
X015973Y014139
X014877Y024283
X019762Y018683
X022247Y010218
X022762Y018683
X015973Y015139
X028008Y020761
X014894Y012137
X033576Y009856
X024181Y016715
X019782Y024283
X008192Y006396
X015973Y013139
X015973Y011139
X008946Y011294
X020247Y010218
T103
X010447Y004987
X008727Y000757
X010647Y002037
X007787Y003297
X006797Y003847
T104
X007962Y014737
X011533Y011372
X023775Y019934
X015339Y016175
X019775Y022934
X018775Y022934
X005348Y017763
X024775Y019934
X015339Y019175
X025746Y009675
X030990Y023528
X022775Y022934
X025746Y008675
X017775Y019934
X013574Y012050
X006626Y024353
X024535Y008948
X029592Y010856
X021775Y022934
X006518Y018546
X020775Y019934
X013181Y017143
X012574Y012050
X006202Y016825
X010181Y017143
X027990Y023528
X016994Y008623
X021535Y008948
X024775Y022934
X002348Y017763
X030344Y009651
X018775Y019934
X019775Y019934
X023775Y022934
X032592Y010856
X030344Y008651
X020775Y022934
X011533Y014372
X021775Y019934
X003202Y016825
X010626Y024353
X007962Y017737
X016994Y009623
X009518Y018546
X022775Y019934
X017775Y022934
T105
X006632Y010066
X006632Y011136
X006632Y012206
T106
X012334Y003813
X029533Y003813
X016217Y003813
X023861Y003813
X027744Y003813
X032224Y012303
X032224Y016186
X033416Y003813
X018125Y003813
X002017Y010197
X002017Y006314
X002017Y019052
X002017Y022935
X022008Y003813
X032193Y018406
X002017Y012067
X032193Y022289
X002017Y015950
T107
X027044Y023498
X020083Y016577
X026059Y023498
X020083Y017561
T108
X014880Y023030
X007880Y020030
X011880Y023030
X013880Y020030
X010880Y020030
X009880Y020030
X008880Y020030
X012880Y020030
X014880Y020030
X010880Y023030
X009880Y023030
X013880Y023030
X008880Y023030
X012880Y023030
X007880Y023030
X011880Y020030
T109
X004969Y009255
X013276Y006766
X004969Y015009
X019066Y006766
X030474Y006766
X004969Y021994
X024803Y006766
X029271Y013245
X029240Y019347
T110
X005342Y003674
X004142Y001774
X002942Y003674
T111
X023797Y015147
X022797Y015147
X019797Y012147
X019797Y015147
X022797Y012147
X023797Y012147
X021797Y012147
X021797Y015147
X020797Y012147
X024797Y015147
X024797Y012147
X020797Y015147
X018797Y012147
X018797Y015147
T00
M30
