G04 MADE WITH FRITZING*
G04 WWW.FRITZING.ORG*
G04 DOUBLE SIDED*
G04 HOLES PLATED*
G04 CONTOUR ON CENTER OF CONTOUR VECTOR*
%ASAXBY*%
%FSLAX23Y23*%
%MOIN*%
%OFA0B0*%
%SFA1.0B1.0*%
%ADD10R,0.001000X0.001000*%
%LNSILK0*%
G90*
G70*
G54D10*
X940Y2160D02*
X945Y2160D01*
X1078Y2160D02*
X1082Y2160D01*
X1215Y2160D02*
X1220Y2160D01*
X1353Y2160D02*
X1357Y2160D01*
X939Y2159D02*
X946Y2159D01*
X1076Y2159D02*
X1084Y2159D01*
X1214Y2159D02*
X1221Y2159D01*
X1351Y2159D02*
X1359Y2159D01*
X938Y2158D02*
X947Y2158D01*
X1076Y2158D02*
X1084Y2158D01*
X1213Y2158D02*
X1222Y2158D01*
X1351Y2158D02*
X1359Y2158D01*
X903Y2157D02*
X915Y2157D01*
X938Y2157D02*
X947Y2157D01*
X1041Y2157D02*
X1053Y2157D01*
X1076Y2157D02*
X1084Y2157D01*
X1178Y2157D02*
X1190Y2157D01*
X1213Y2157D02*
X1222Y2157D01*
X1316Y2157D02*
X1328Y2157D01*
X1351Y2157D02*
X1359Y2157D01*
X902Y2156D02*
X916Y2156D01*
X938Y2156D02*
X947Y2156D01*
X1040Y2156D02*
X1054Y2156D01*
X1076Y2156D02*
X1084Y2156D01*
X1177Y2156D02*
X1191Y2156D01*
X1213Y2156D02*
X1222Y2156D01*
X1315Y2156D02*
X1329Y2156D01*
X1351Y2156D02*
X1359Y2156D01*
X902Y2155D02*
X917Y2155D01*
X938Y2155D02*
X947Y2155D01*
X1039Y2155D02*
X1054Y2155D01*
X1076Y2155D02*
X1084Y2155D01*
X1177Y2155D02*
X1192Y2155D01*
X1213Y2155D02*
X1222Y2155D01*
X1315Y2155D02*
X1329Y2155D01*
X1351Y2155D02*
X1359Y2155D01*
X902Y2154D02*
X917Y2154D01*
X938Y2154D02*
X947Y2154D01*
X1039Y2154D02*
X1054Y2154D01*
X1076Y2154D02*
X1084Y2154D01*
X1177Y2154D02*
X1192Y2154D01*
X1213Y2154D02*
X1222Y2154D01*
X1314Y2154D02*
X1329Y2154D01*
X1351Y2154D02*
X1359Y2154D01*
X902Y2153D02*
X916Y2153D01*
X939Y2153D02*
X946Y2153D01*
X1039Y2153D02*
X1054Y2153D01*
X1076Y2153D02*
X1084Y2153D01*
X1177Y2153D02*
X1191Y2153D01*
X1214Y2153D02*
X1221Y2153D01*
X1314Y2153D02*
X1329Y2153D01*
X1351Y2153D02*
X1359Y2153D01*
X902Y2152D02*
X915Y2152D01*
X939Y2152D02*
X946Y2152D01*
X1039Y2152D02*
X1053Y2152D01*
X1077Y2152D02*
X1083Y2152D01*
X1177Y2152D02*
X1190Y2152D01*
X1215Y2152D02*
X1221Y2152D01*
X1314Y2152D02*
X1328Y2152D01*
X1352Y2152D02*
X1358Y2152D01*
X902Y2151D02*
X907Y2151D01*
X1039Y2151D02*
X1045Y2151D01*
X1177Y2151D02*
X1182Y2151D01*
X1314Y2151D02*
X1320Y2151D01*
X902Y2150D02*
X907Y2150D01*
X1039Y2150D02*
X1045Y2150D01*
X1177Y2150D02*
X1182Y2150D01*
X1314Y2150D02*
X1320Y2150D01*
X902Y2149D02*
X907Y2149D01*
X1039Y2149D02*
X1045Y2149D01*
X1177Y2149D02*
X1182Y2149D01*
X1314Y2149D02*
X1320Y2149D01*
X902Y2148D02*
X907Y2148D01*
X1039Y2148D02*
X1045Y2148D01*
X1177Y2148D02*
X1182Y2148D01*
X1314Y2148D02*
X1320Y2148D01*
X902Y2147D02*
X907Y2147D01*
X1039Y2147D02*
X1045Y2147D01*
X1177Y2147D02*
X1182Y2147D01*
X1314Y2147D02*
X1320Y2147D01*
X902Y2146D02*
X907Y2146D01*
X1039Y2146D02*
X1045Y2146D01*
X1177Y2146D02*
X1182Y2146D01*
X1314Y2146D02*
X1320Y2146D01*
X902Y2145D02*
X907Y2145D01*
X1039Y2145D02*
X1045Y2145D01*
X1177Y2145D02*
X1182Y2145D01*
X1314Y2145D02*
X1320Y2145D01*
X846Y2144D02*
X861Y2144D01*
X902Y2144D02*
X907Y2144D01*
X940Y2144D02*
X954Y2144D01*
X983Y2144D02*
X999Y2144D01*
X1039Y2144D02*
X1045Y2144D01*
X1078Y2144D02*
X1092Y2144D01*
X1121Y2144D02*
X1136Y2144D01*
X1177Y2144D02*
X1182Y2144D01*
X1215Y2144D02*
X1229Y2144D01*
X1258Y2144D02*
X1274Y2144D01*
X1314Y2144D02*
X1320Y2144D01*
X1353Y2144D02*
X1367Y2144D01*
X844Y2143D02*
X864Y2143D01*
X902Y2143D02*
X907Y2143D01*
X939Y2143D02*
X955Y2143D01*
X982Y2143D02*
X1001Y2143D01*
X1039Y2143D02*
X1045Y2143D01*
X1077Y2143D02*
X1093Y2143D01*
X1119Y2143D02*
X1139Y2143D01*
X1177Y2143D02*
X1182Y2143D01*
X1214Y2143D02*
X1231Y2143D01*
X1257Y2143D02*
X1276Y2143D01*
X1314Y2143D02*
X1320Y2143D01*
X1352Y2143D02*
X1368Y2143D01*
X844Y2142D02*
X865Y2142D01*
X902Y2142D02*
X907Y2142D01*
X938Y2142D02*
X956Y2142D01*
X981Y2142D02*
X1003Y2142D01*
X1039Y2142D02*
X1045Y2142D01*
X1076Y2142D02*
X1094Y2142D01*
X1119Y2142D02*
X1140Y2142D01*
X1177Y2142D02*
X1182Y2142D01*
X1213Y2142D02*
X1231Y2142D01*
X1256Y2142D02*
X1278Y2142D01*
X1314Y2142D02*
X1320Y2142D01*
X1351Y2142D02*
X1369Y2142D01*
X843Y2141D02*
X867Y2141D01*
X902Y2141D02*
X907Y2141D01*
X938Y2141D02*
X956Y2141D01*
X981Y2141D02*
X1004Y2141D01*
X1039Y2141D02*
X1045Y2141D01*
X1076Y2141D02*
X1094Y2141D01*
X1118Y2141D02*
X1142Y2141D01*
X1177Y2141D02*
X1182Y2141D01*
X1213Y2141D02*
X1231Y2141D01*
X1256Y2141D02*
X1279Y2141D01*
X1314Y2141D02*
X1320Y2141D01*
X1351Y2141D02*
X1369Y2141D01*
X844Y2140D02*
X868Y2140D01*
X902Y2140D02*
X907Y2140D01*
X938Y2140D02*
X956Y2140D01*
X981Y2140D02*
X1005Y2140D01*
X1039Y2140D02*
X1045Y2140D01*
X1076Y2140D02*
X1094Y2140D01*
X1119Y2140D02*
X1143Y2140D01*
X1177Y2140D02*
X1182Y2140D01*
X1213Y2140D02*
X1231Y2140D01*
X1256Y2140D02*
X1280Y2140D01*
X1314Y2140D02*
X1320Y2140D01*
X1351Y2140D02*
X1369Y2140D01*
X844Y2139D02*
X869Y2139D01*
X902Y2139D02*
X907Y2139D01*
X938Y2139D02*
X955Y2139D01*
X982Y2139D02*
X1006Y2139D01*
X1039Y2139D02*
X1045Y2139D01*
X1076Y2139D02*
X1093Y2139D01*
X1119Y2139D02*
X1144Y2139D01*
X1177Y2139D02*
X1182Y2139D01*
X1213Y2139D02*
X1230Y2139D01*
X1257Y2139D02*
X1281Y2139D01*
X1314Y2139D02*
X1320Y2139D01*
X1351Y2139D02*
X1368Y2139D01*
X846Y2138D02*
X870Y2138D01*
X902Y2138D02*
X907Y2138D01*
X938Y2138D02*
X954Y2138D01*
X983Y2138D02*
X1007Y2138D01*
X1039Y2138D02*
X1045Y2138D01*
X1076Y2138D02*
X1091Y2138D01*
X1121Y2138D02*
X1145Y2138D01*
X1177Y2138D02*
X1182Y2138D01*
X1213Y2138D02*
X1229Y2138D01*
X1258Y2138D02*
X1282Y2138D01*
X1314Y2138D02*
X1320Y2138D01*
X1351Y2138D02*
X1366Y2138D01*
X862Y2137D02*
X871Y2137D01*
X902Y2137D02*
X907Y2137D01*
X938Y2137D02*
X944Y2137D01*
X1000Y2137D02*
X1008Y2137D01*
X1039Y2137D02*
X1045Y2137D01*
X1076Y2137D02*
X1081Y2137D01*
X1137Y2137D02*
X1146Y2137D01*
X1177Y2137D02*
X1182Y2137D01*
X1213Y2137D02*
X1219Y2137D01*
X1275Y2137D02*
X1283Y2137D01*
X1314Y2137D02*
X1320Y2137D01*
X1351Y2137D02*
X1356Y2137D01*
X863Y2136D02*
X872Y2136D01*
X902Y2136D02*
X907Y2136D01*
X938Y2136D02*
X944Y2136D01*
X1001Y2136D02*
X1009Y2136D01*
X1039Y2136D02*
X1045Y2136D01*
X1076Y2136D02*
X1081Y2136D01*
X1138Y2136D02*
X1147Y2136D01*
X1177Y2136D02*
X1182Y2136D01*
X1213Y2136D02*
X1219Y2136D01*
X1276Y2136D02*
X1284Y2136D01*
X1314Y2136D02*
X1320Y2136D01*
X1351Y2136D02*
X1356Y2136D01*
X864Y2135D02*
X873Y2135D01*
X902Y2135D02*
X907Y2135D01*
X938Y2135D02*
X944Y2135D01*
X1002Y2135D02*
X1010Y2135D01*
X1039Y2135D02*
X1045Y2135D01*
X1076Y2135D02*
X1081Y2135D01*
X1139Y2135D02*
X1148Y2135D01*
X1177Y2135D02*
X1182Y2135D01*
X1213Y2135D02*
X1219Y2135D01*
X1277Y2135D02*
X1285Y2135D01*
X1314Y2135D02*
X1320Y2135D01*
X1351Y2135D02*
X1356Y2135D01*
X866Y2134D02*
X873Y2134D01*
X902Y2134D02*
X907Y2134D01*
X938Y2134D02*
X944Y2134D01*
X1003Y2134D02*
X1011Y2134D01*
X1039Y2134D02*
X1045Y2134D01*
X1076Y2134D02*
X1081Y2134D01*
X1141Y2134D02*
X1148Y2134D01*
X1177Y2134D02*
X1182Y2134D01*
X1213Y2134D02*
X1219Y2134D01*
X1278Y2134D02*
X1286Y2134D01*
X1314Y2134D02*
X1320Y2134D01*
X1351Y2134D02*
X1356Y2134D01*
X867Y2133D02*
X873Y2133D01*
X902Y2133D02*
X907Y2133D01*
X938Y2133D02*
X944Y2133D01*
X1004Y2133D02*
X1011Y2133D01*
X1039Y2133D02*
X1045Y2133D01*
X1076Y2133D02*
X1081Y2133D01*
X1142Y2133D02*
X1149Y2133D01*
X1177Y2133D02*
X1182Y2133D01*
X1213Y2133D02*
X1219Y2133D01*
X1279Y2133D02*
X1286Y2133D01*
X1314Y2133D02*
X1320Y2133D01*
X1351Y2133D02*
X1356Y2133D01*
X868Y2132D02*
X874Y2132D01*
X902Y2132D02*
X907Y2132D01*
X938Y2132D02*
X944Y2132D01*
X1005Y2132D02*
X1011Y2132D01*
X1039Y2132D02*
X1045Y2132D01*
X1076Y2132D02*
X1081Y2132D01*
X1143Y2132D02*
X1149Y2132D01*
X1177Y2132D02*
X1182Y2132D01*
X1213Y2132D02*
X1219Y2132D01*
X1280Y2132D02*
X1286Y2132D01*
X1314Y2132D02*
X1320Y2132D01*
X1351Y2132D02*
X1356Y2132D01*
X868Y2131D02*
X874Y2131D01*
X902Y2131D02*
X907Y2131D01*
X938Y2131D02*
X944Y2131D01*
X1006Y2131D02*
X1011Y2131D01*
X1039Y2131D02*
X1045Y2131D01*
X1076Y2131D02*
X1081Y2131D01*
X1143Y2131D02*
X1149Y2131D01*
X1177Y2131D02*
X1182Y2131D01*
X1213Y2131D02*
X1219Y2131D01*
X1281Y2131D02*
X1286Y2131D01*
X1314Y2131D02*
X1320Y2131D01*
X1351Y2131D02*
X1356Y2131D01*
X868Y2130D02*
X874Y2130D01*
X902Y2130D02*
X907Y2130D01*
X938Y2130D02*
X944Y2130D01*
X1006Y2130D02*
X1011Y2130D01*
X1039Y2130D02*
X1045Y2130D01*
X1076Y2130D02*
X1081Y2130D01*
X1144Y2130D02*
X1149Y2130D01*
X1177Y2130D02*
X1182Y2130D01*
X1213Y2130D02*
X1219Y2130D01*
X1281Y2130D02*
X1287Y2130D01*
X1314Y2130D02*
X1320Y2130D01*
X1351Y2130D02*
X1356Y2130D01*
X869Y2129D02*
X874Y2129D01*
X902Y2129D02*
X907Y2129D01*
X938Y2129D02*
X944Y2129D01*
X1006Y2129D02*
X1011Y2129D01*
X1039Y2129D02*
X1045Y2129D01*
X1076Y2129D02*
X1081Y2129D01*
X1144Y2129D02*
X1149Y2129D01*
X1177Y2129D02*
X1182Y2129D01*
X1213Y2129D02*
X1219Y2129D01*
X1281Y2129D02*
X1287Y2129D01*
X1314Y2129D02*
X1320Y2129D01*
X1351Y2129D02*
X1356Y2129D01*
X869Y2128D02*
X874Y2128D01*
X902Y2128D02*
X907Y2128D01*
X938Y2128D02*
X944Y2128D01*
X1006Y2128D02*
X1011Y2128D01*
X1039Y2128D02*
X1045Y2128D01*
X1076Y2128D02*
X1081Y2128D01*
X1144Y2128D02*
X1149Y2128D01*
X1177Y2128D02*
X1182Y2128D01*
X1213Y2128D02*
X1219Y2128D01*
X1281Y2128D02*
X1287Y2128D01*
X1314Y2128D02*
X1320Y2128D01*
X1351Y2128D02*
X1356Y2128D01*
X869Y2127D02*
X874Y2127D01*
X902Y2127D02*
X907Y2127D01*
X938Y2127D02*
X944Y2127D01*
X1006Y2127D02*
X1011Y2127D01*
X1039Y2127D02*
X1045Y2127D01*
X1076Y2127D02*
X1081Y2127D01*
X1144Y2127D02*
X1149Y2127D01*
X1177Y2127D02*
X1182Y2127D01*
X1213Y2127D02*
X1219Y2127D01*
X1281Y2127D02*
X1287Y2127D01*
X1314Y2127D02*
X1320Y2127D01*
X1351Y2127D02*
X1356Y2127D01*
X869Y2126D02*
X874Y2126D01*
X902Y2126D02*
X907Y2126D01*
X938Y2126D02*
X944Y2126D01*
X1006Y2126D02*
X1011Y2126D01*
X1039Y2126D02*
X1045Y2126D01*
X1076Y2126D02*
X1081Y2126D01*
X1144Y2126D02*
X1149Y2126D01*
X1177Y2126D02*
X1182Y2126D01*
X1213Y2126D02*
X1219Y2126D01*
X1281Y2126D02*
X1287Y2126D01*
X1314Y2126D02*
X1320Y2126D01*
X1351Y2126D02*
X1356Y2126D01*
X869Y2125D02*
X874Y2125D01*
X902Y2125D02*
X907Y2125D01*
X938Y2125D02*
X944Y2125D01*
X1006Y2125D02*
X1011Y2125D01*
X1039Y2125D02*
X1045Y2125D01*
X1076Y2125D02*
X1081Y2125D01*
X1144Y2125D02*
X1149Y2125D01*
X1177Y2125D02*
X1182Y2125D01*
X1213Y2125D02*
X1219Y2125D01*
X1281Y2125D02*
X1287Y2125D01*
X1314Y2125D02*
X1320Y2125D01*
X1351Y2125D02*
X1356Y2125D01*
X869Y2124D02*
X874Y2124D01*
X902Y2124D02*
X907Y2124D01*
X938Y2124D02*
X944Y2124D01*
X1006Y2124D02*
X1011Y2124D01*
X1039Y2124D02*
X1045Y2124D01*
X1076Y2124D02*
X1081Y2124D01*
X1144Y2124D02*
X1149Y2124D01*
X1177Y2124D02*
X1182Y2124D01*
X1213Y2124D02*
X1219Y2124D01*
X1281Y2124D02*
X1287Y2124D01*
X1314Y2124D02*
X1320Y2124D01*
X1351Y2124D02*
X1356Y2124D01*
X869Y2123D02*
X874Y2123D01*
X902Y2123D02*
X907Y2123D01*
X938Y2123D02*
X944Y2123D01*
X1006Y2123D02*
X1011Y2123D01*
X1039Y2123D02*
X1045Y2123D01*
X1076Y2123D02*
X1081Y2123D01*
X1144Y2123D02*
X1149Y2123D01*
X1177Y2123D02*
X1182Y2123D01*
X1213Y2123D02*
X1219Y2123D01*
X1281Y2123D02*
X1287Y2123D01*
X1314Y2123D02*
X1320Y2123D01*
X1351Y2123D02*
X1356Y2123D01*
X868Y2122D02*
X874Y2122D01*
X902Y2122D02*
X907Y2122D01*
X938Y2122D02*
X944Y2122D01*
X1006Y2122D02*
X1011Y2122D01*
X1039Y2122D02*
X1045Y2122D01*
X1076Y2122D02*
X1081Y2122D01*
X1143Y2122D02*
X1149Y2122D01*
X1177Y2122D02*
X1182Y2122D01*
X1213Y2122D02*
X1219Y2122D01*
X1281Y2122D02*
X1286Y2122D01*
X1314Y2122D02*
X1320Y2122D01*
X1351Y2122D02*
X1356Y2122D01*
X868Y2121D02*
X874Y2121D01*
X902Y2121D02*
X907Y2121D01*
X938Y2121D02*
X944Y2121D01*
X1006Y2121D02*
X1011Y2121D01*
X1039Y2121D02*
X1045Y2121D01*
X1076Y2121D02*
X1081Y2121D01*
X1143Y2121D02*
X1149Y2121D01*
X1177Y2121D02*
X1182Y2121D01*
X1213Y2121D02*
X1219Y2121D01*
X1281Y2121D02*
X1286Y2121D01*
X1314Y2121D02*
X1320Y2121D01*
X1351Y2121D02*
X1356Y2121D01*
X867Y2120D02*
X874Y2120D01*
X902Y2120D02*
X907Y2120D01*
X938Y2120D02*
X944Y2120D01*
X1005Y2120D02*
X1011Y2120D01*
X1039Y2120D02*
X1045Y2120D01*
X1076Y2120D02*
X1081Y2120D01*
X1142Y2120D02*
X1149Y2120D01*
X1177Y2120D02*
X1182Y2120D01*
X1213Y2120D02*
X1219Y2120D01*
X1280Y2120D02*
X1286Y2120D01*
X1314Y2120D02*
X1320Y2120D01*
X1351Y2120D02*
X1356Y2120D01*
X866Y2119D02*
X873Y2119D01*
X902Y2119D02*
X907Y2119D01*
X938Y2119D02*
X944Y2119D01*
X1004Y2119D02*
X1011Y2119D01*
X1039Y2119D02*
X1045Y2119D01*
X1076Y2119D02*
X1081Y2119D01*
X1141Y2119D02*
X1148Y2119D01*
X1177Y2119D02*
X1182Y2119D01*
X1213Y2119D02*
X1219Y2119D01*
X1279Y2119D02*
X1286Y2119D01*
X1314Y2119D02*
X1320Y2119D01*
X1351Y2119D02*
X1356Y2119D01*
X865Y2118D02*
X873Y2118D01*
X902Y2118D02*
X907Y2118D01*
X938Y2118D02*
X944Y2118D01*
X1003Y2118D02*
X1010Y2118D01*
X1039Y2118D02*
X1045Y2118D01*
X1076Y2118D02*
X1081Y2118D01*
X1140Y2118D02*
X1148Y2118D01*
X1177Y2118D02*
X1182Y2118D01*
X1213Y2118D02*
X1219Y2118D01*
X1278Y2118D02*
X1285Y2118D01*
X1314Y2118D02*
X1320Y2118D01*
X1351Y2118D02*
X1356Y2118D01*
X864Y2117D02*
X872Y2117D01*
X902Y2117D02*
X907Y2117D01*
X938Y2117D02*
X944Y2117D01*
X1001Y2117D02*
X1010Y2117D01*
X1039Y2117D02*
X1045Y2117D01*
X1076Y2117D02*
X1081Y2117D01*
X1139Y2117D02*
X1147Y2117D01*
X1177Y2117D02*
X1182Y2117D01*
X1213Y2117D02*
X1219Y2117D01*
X1276Y2117D02*
X1285Y2117D01*
X1314Y2117D02*
X1320Y2117D01*
X1351Y2117D02*
X1356Y2117D01*
X863Y2116D02*
X871Y2116D01*
X902Y2116D02*
X907Y2116D01*
X938Y2116D02*
X944Y2116D01*
X1000Y2116D02*
X1009Y2116D01*
X1039Y2116D02*
X1045Y2116D01*
X1076Y2116D02*
X1081Y2116D01*
X1138Y2116D02*
X1146Y2116D01*
X1177Y2116D02*
X1182Y2116D01*
X1213Y2116D02*
X1219Y2116D01*
X1275Y2116D02*
X1284Y2116D01*
X1314Y2116D02*
X1320Y2116D01*
X1351Y2116D02*
X1356Y2116D01*
X861Y2115D02*
X870Y2115D01*
X902Y2115D02*
X907Y2115D01*
X938Y2115D02*
X944Y2115D01*
X999Y2115D02*
X1008Y2115D01*
X1039Y2115D02*
X1045Y2115D01*
X1076Y2115D02*
X1081Y2115D01*
X1136Y2115D02*
X1145Y2115D01*
X1177Y2115D02*
X1182Y2115D01*
X1213Y2115D02*
X1219Y2115D01*
X1274Y2115D02*
X1283Y2115D01*
X1314Y2115D02*
X1320Y2115D01*
X1351Y2115D02*
X1356Y2115D01*
X845Y2114D02*
X869Y2114D01*
X894Y2114D02*
X915Y2114D01*
X938Y2114D02*
X944Y2114D01*
X982Y2114D02*
X1007Y2114D01*
X1031Y2114D02*
X1053Y2114D01*
X1076Y2114D02*
X1081Y2114D01*
X1120Y2114D02*
X1144Y2114D01*
X1169Y2114D02*
X1190Y2114D01*
X1213Y2114D02*
X1219Y2114D01*
X1257Y2114D02*
X1282Y2114D01*
X1306Y2114D02*
X1328Y2114D01*
X1351Y2114D02*
X1356Y2114D01*
X844Y2113D02*
X868Y2113D01*
X893Y2113D02*
X916Y2113D01*
X938Y2113D02*
X944Y2113D01*
X981Y2113D02*
X1006Y2113D01*
X1030Y2113D02*
X1054Y2113D01*
X1076Y2113D02*
X1081Y2113D01*
X1119Y2113D02*
X1143Y2113D01*
X1168Y2113D02*
X1191Y2113D01*
X1213Y2113D02*
X1219Y2113D01*
X1256Y2113D02*
X1281Y2113D01*
X1305Y2113D02*
X1329Y2113D01*
X1351Y2113D02*
X1356Y2113D01*
X843Y2112D02*
X867Y2112D01*
X892Y2112D02*
X917Y2112D01*
X938Y2112D02*
X944Y2112D01*
X981Y2112D02*
X1004Y2112D01*
X1030Y2112D02*
X1054Y2112D01*
X1076Y2112D02*
X1081Y2112D01*
X1119Y2112D02*
X1142Y2112D01*
X1168Y2112D02*
X1192Y2112D01*
X1213Y2112D02*
X1219Y2112D01*
X1256Y2112D02*
X1280Y2112D01*
X1305Y2112D02*
X1329Y2112D01*
X1351Y2112D02*
X1356Y2112D01*
X843Y2111D02*
X866Y2111D01*
X892Y2111D02*
X917Y2111D01*
X938Y2111D02*
X944Y2111D01*
X981Y2111D02*
X1003Y2111D01*
X1030Y2111D02*
X1054Y2111D01*
X1076Y2111D02*
X1081Y2111D01*
X1119Y2111D02*
X1141Y2111D01*
X1168Y2111D02*
X1192Y2111D01*
X1213Y2111D02*
X1219Y2111D01*
X1256Y2111D02*
X1278Y2111D01*
X1305Y2111D02*
X1329Y2111D01*
X1351Y2111D02*
X1356Y2111D01*
X844Y2110D02*
X865Y2110D01*
X893Y2110D02*
X916Y2110D01*
X938Y2110D02*
X944Y2110D01*
X981Y2110D02*
X1002Y2110D01*
X1030Y2110D02*
X1054Y2110D01*
X1076Y2110D02*
X1081Y2110D01*
X1119Y2110D02*
X1140Y2110D01*
X1168Y2110D02*
X1191Y2110D01*
X1213Y2110D02*
X1219Y2110D01*
X1256Y2110D02*
X1277Y2110D01*
X1305Y2110D02*
X1329Y2110D01*
X1351Y2110D02*
X1356Y2110D01*
X845Y2109D02*
X863Y2109D01*
X894Y2109D02*
X915Y2109D01*
X938Y2109D02*
X944Y2109D01*
X982Y2109D02*
X1000Y2109D01*
X1031Y2109D02*
X1053Y2109D01*
X1076Y2109D02*
X1081Y2109D01*
X1120Y2109D02*
X1138Y2109D01*
X1169Y2109D02*
X1191Y2109D01*
X1213Y2109D02*
X1219Y2109D01*
X1257Y2109D02*
X1275Y2109D01*
X1306Y2109D02*
X1328Y2109D01*
X1351Y2109D02*
X1356Y2109D01*
X938Y2108D02*
X944Y2108D01*
X1076Y2108D02*
X1081Y2108D01*
X1213Y2108D02*
X1219Y2108D01*
X1351Y2108D02*
X1356Y2108D01*
X938Y2107D02*
X944Y2107D01*
X1076Y2107D02*
X1081Y2107D01*
X1213Y2107D02*
X1219Y2107D01*
X1351Y2107D02*
X1356Y2107D01*
X938Y2106D02*
X944Y2106D01*
X959Y2106D02*
X961Y2106D01*
X1076Y2106D02*
X1081Y2106D01*
X1096Y2106D02*
X1099Y2106D01*
X1213Y2106D02*
X1219Y2106D01*
X1234Y2106D02*
X1236Y2106D01*
X1351Y2106D02*
X1356Y2106D01*
X1371Y2106D02*
X1374Y2106D01*
X938Y2105D02*
X944Y2105D01*
X958Y2105D02*
X962Y2105D01*
X1076Y2105D02*
X1081Y2105D01*
X1095Y2105D02*
X1100Y2105D01*
X1213Y2105D02*
X1219Y2105D01*
X1233Y2105D02*
X1237Y2105D01*
X1351Y2105D02*
X1356Y2105D01*
X1370Y2105D02*
X1375Y2105D01*
X938Y2104D02*
X944Y2104D01*
X957Y2104D02*
X962Y2104D01*
X1076Y2104D02*
X1081Y2104D01*
X1095Y2104D02*
X1100Y2104D01*
X1213Y2104D02*
X1219Y2104D01*
X1232Y2104D02*
X1237Y2104D01*
X1351Y2104D02*
X1356Y2104D01*
X1370Y2104D02*
X1375Y2104D01*
X938Y2103D02*
X944Y2103D01*
X957Y2103D02*
X962Y2103D01*
X1076Y2103D02*
X1081Y2103D01*
X1094Y2103D02*
X1100Y2103D01*
X1213Y2103D02*
X1219Y2103D01*
X1232Y2103D02*
X1238Y2103D01*
X1351Y2103D02*
X1357Y2103D01*
X1369Y2103D02*
X1375Y2103D01*
X939Y2102D02*
X945Y2102D01*
X956Y2102D02*
X962Y2102D01*
X1076Y2102D02*
X1082Y2102D01*
X1094Y2102D02*
X1100Y2102D01*
X1214Y2102D02*
X1220Y2102D01*
X1231Y2102D02*
X1237Y2102D01*
X1351Y2102D02*
X1357Y2102D01*
X1369Y2102D02*
X1375Y2102D01*
X939Y2101D02*
X962Y2101D01*
X1076Y2101D02*
X1100Y2101D01*
X1214Y2101D02*
X1237Y2101D01*
X1351Y2101D02*
X1375Y2101D01*
X939Y2100D02*
X962Y2100D01*
X1077Y2100D02*
X1099Y2100D01*
X1214Y2100D02*
X1237Y2100D01*
X1352Y2100D02*
X1374Y2100D01*
X940Y2099D02*
X961Y2099D01*
X1077Y2099D02*
X1099Y2099D01*
X1215Y2099D02*
X1236Y2099D01*
X1352Y2099D02*
X1374Y2099D01*
X941Y2098D02*
X960Y2098D01*
X1078Y2098D02*
X1098Y2098D01*
X1216Y2098D02*
X1235Y2098D01*
X1353Y2098D02*
X1373Y2098D01*
X942Y2097D02*
X959Y2097D01*
X1079Y2097D02*
X1097Y2097D01*
X1217Y2097D02*
X1234Y2097D01*
X1354Y2097D02*
X1372Y2097D01*
X943Y2096D02*
X958Y2096D01*
X1081Y2096D02*
X1095Y2096D01*
X1218Y2096D02*
X1233Y2096D01*
X1356Y2096D02*
X1370Y2096D01*
X946Y2095D02*
X955Y2095D01*
X1083Y2095D02*
X1092Y2095D01*
X1221Y2095D02*
X1230Y2095D01*
X1358Y2095D02*
X1367Y2095D01*
D02*
G04 End of Silk0*
M02*